<svg width="1200" height="720" viewBox="0 0 1200 720" fill="none" xmlns="http://www.w3.org/2000/svg">
  <rect width="1200" height="720" fill="#F7F6F2"/>
  <rect x="96" y="108" width="288" height="504" fill="#FFFFFF" stroke="#D6DDE5" stroke-width="2"/>
  <rect x="456" y="108" width="288" height="504" fill="#FFFFFF" stroke="#D6DDE5" stroke-width="2"/>
  <rect x="816" y="108" width="288" height="504" fill="#FFFFFF" stroke="#D6DDE5" stroke-width="2"/>
  <rect x="132" y="158" width="216" height="22" fill="#101214"/>
  <rect x="492" y="158" width="216" height="22" fill="#101214"/>
  <rect x="852" y="158" width="216" height="22" fill="#101214"/>
  <rect x="132" y="224" width="216" height="118" fill="#EEF2F6"/>
  <rect x="492" y="224" width="216" height="118" fill="#EEF2F6"/>
  <rect x="852" y="224" width="216" height="118" fill="#EEF2F6"/>
  <rect x="132" y="382" width="216" height="14" fill="#D6DDE5"/>
  <rect x="132" y="412" width="190" height="14" fill="#D6DDE5"/>
  <rect x="492" y="382" width="216" height="14" fill="#D6DDE5"/>
  <rect x="492" y="412" width="198" height="14" fill="#D6DDE5"/>
  <rect x="852" y="382" width="216" height="14" fill="#D6DDE5"/>
  <rect x="852" y="412" width="204" height="14" fill="#D6DDE5"/>
  <path d="M384 360H456" stroke="#246BFD" stroke-width="4"/>
  <path d="M744 360H816" stroke="#246BFD" stroke-width="4"/>
  <circle cx="420" cy="360" r="10" fill="#246BFD"/>
  <circle cx="780" cy="360" r="10" fill="#246BFD"/>
  <text x="133" y="140" fill="#4F5B66" font-family="Inter, Arial, sans-serif" font-size="18" font-weight="600" letter-spacing="2.4">
    WRITE
  </text>
  <text x="493" y="140" fill="#4F5B66" font-family="Inter, Arial, sans-serif" font-size="18" font-weight="600" letter-spacing="2.4">
    RENDER
  </text>
  <text x="853" y="140" fill="#4F5B66" font-family="Inter, Arial, sans-serif" font-size="18" font-weight="600" letter-spacing="2.4">
    PUBLISH
  </text>
</svg>
